<?xml version="1.0" standalone="no"?>
<!DOCTYPE svg PUBLIC "-//W3C//DTD SVG 20010904//EN"
 "http://www.w3.org/TR/2001/REC-SVG-20010904/DTD/svg10.dtd">
<svg version="1.0" xmlns="http://www.w3.org/2000/svg"
 width="260.000000pt" height="260.000000pt" viewBox="0 0 260.000000 260.000000"
 preserveAspectRatio="xMidYMid meet">
<metadata>
Created by potrace 1.14, written by Peter Selinger 2001-2017
</metadata>
<g transform="translate(0.000000,260.000000) scale(0.100000,-0.100000)"
fill="#000000" stroke="none">
<path d="M855 1948 c0 -40 -3 -79 -8 -85 -5 -7 -6 -13 -1 -13 11 0 11 -131 0
-148 -4 -7 -4 -12 1 -12 10 0 8 -173 -1 -189 -4 -6 -4 -11 1 -11 10 0 9 -173
-1 -189 -4 -6 -4 -11 1 -11 10 0 9 -253 -1 -269 -4 -6 -3 -11 2 -11 5 0 6 -19
3 -42 -4 -24 -6 -58 -6 -76 1 -17 -2 -32 -7 -32 -4 0 -8 -10 -8 -22 0 -44 -79
-128 -120 -128 -9 0 -21 -5 -28 -12 -9 -9 -12 -9 -12 1 0 7 -4 10 -9 6 -19
-11 -70 -12 -75 -1 -3 7 -5 6 -5 -2 -1 -7 -5 -10 -11 -7 -5 3 -27 8 -47 10
-51 5 -71 10 -79 18 -4 4 -17 7 -29 7 -11 0 -26 5 -32 11 -14 14 -48 8 -49 -9
-1 -6 -2 -18 -3 -26 0 -8 -8 -22 -17 -30 -12 -12 -12 -16 -2 -16 10 0 10 -2
-1 -9 -22 -14 -22 -41 0 -41 10 0 19 -5 19 -12 0 -6 3 -9 6 -5 4 3 19 0 34 -8
15 -8 30 -11 34 -8 3 4 6 1 6 -5 0 -6 7 -9 15 -6 8 4 15 2 15 -3 0 -5 17 -9
38 -9 20 0 36 -4 35 -10 -2 -12 126 -12 145 -1 7 5 12 3 12 -5 0 -10 2 -10 9
1 7 11 9 11 14 0 3 -9 6 -7 6 5 1 20 1 20 17 0 8 -10 13 -14 10 -7 -6 12 11
20 61 29 15 3 30 8 33 12 3 4 19 15 37 25 35 19 93 74 93 87 0 4 7 13 15 20 9
7 13 15 11 18 -3 3 4 18 16 35 12 17 16 27 8 22 -10 -6 -11 -4 -4 6 9 15 11
23 18 76 2 18 7 37 11 43 3 5 1 10 -5 10 -8 0 -8 6 0 20 8 14 8 20 0 20 -6 0
-8 5 -4 12 10 16 12 58 3 58 -9 0 -6 21 4 38 5 7 3 12 -3 12 -6 0 -8 5 -4 12
12 18 11 58 -1 58 -5 0 -3 5 5 10 11 7 11 10 2 10 -10 0 -10 5 -2 20 6 12 7
20 1 20 -6 0 -6 11 -1 30 5 17 5 30 0 30 -10 0 -8 19 3 38 5 7 3 12 -3 12 -6
0 -8 5 -4 12 12 18 11 58 -1 58 -5 0 -3 5 5 10 11 7 11 10 2 10 -10 0 -10 5
-2 20 6 12 7 20 1 20 -6 0 -6 11 -1 30 5 17 5 30 0 30 -10 0 -8 19 3 38 5 7 3
12 -3 12 -6 0 -8 5 -4 12 10 16 12 58 3 58 -9 0 -6 21 4 38 5 7 3 12 -4 12 -8
0 -8 4 -1 13 7 8 7 18 2 27 -5 9 -5 19 2 27 7 9 7 13 -2 13 -9 0 -9 4 -2 13 7
8 7 18 2 27 -5 9 -5 19 2 27 7 9 7 13 -2 13 -9 0 -9 4 -2 13 7 8 7 18 2 27 -5
9 -5 19 2 27 8 10 7 13 -3 13 -9 0 -10 3 -2 11 7 7 8 21 3 40 -6 20 -5 29 3
29 7 0 6 4 -3 9 -22 13 -121 10 -113 -3 3 -6 0 -5 -8 2 -7 6 -20 12 -29 12
-14 0 -17 -12 -15 -72z m-301 -1396 c3 -5 -1 -9 -9 -9 -8 0 -12 4 -9 9 3 4 7
8 9 8 2 0 6 -4 9 -8z"/>
<path d="M1429 1998 c-2 -28 -5 -50 -9 -63 -1 -5 -1 -14 0 -20 8 -27 4 -303
-3 -298 -5 3 -5 -3 0 -13 8 -16 11 -139 3 -154 -1 -3 -1 -9 0 -15 8 -28 5
-143 -3 -138 -5 3 -5 -3 0 -13 8 -16 11 -139 3 -154 -1 -3 -1 -9 0 -15 8 -27
4 -303 -3 -298 -5 3 -5 -3 0 -13 6 -11 9 -68 8 -127 l-1 -108 203 1 c112 1
201 5 199 8 -2 4 11 8 30 9 38 2 125 32 135 46 3 5 9 8 12 8 14 -1 71 36 106
69 20 19 39 34 44 32 4 -1 7 5 7 13 0 9 6 18 13 21 7 2 26 27 42 54 16 28 32
50 37 50 4 0 5 9 3 20 -2 11 0 20 4 20 7 0 19 30 25 60 1 3 5 11 9 18 5 6 6
12 3 12 -3 0 1 18 9 40 8 22 12 40 8 40 -3 0 -1 6 4 13 5 6 8 23 7 37 -1 14 3
31 10 39 8 11 8 13 0 8 -8 -4 -11 2 -10 18 0 14 4 25 8 25 4 0 3 12 -2 26 -12
32 -12 37 0 29 5 -3 8 0 6 7 -12 39 -15 78 -5 72 8 -4 8 -1 1 13 -6 11 -9 28
-8 39 2 10 -2 25 -8 33 -9 12 -8 13 4 6 12 -7 13 -6 3 6 -7 8 -13 32 -15 52
-1 20 -5 37 -8 37 -4 0 -7 7 -8 15 -1 8 -3 22 -4 30 -1 8 -4 15 -8 15 -4 0 -7
7 -8 15 -1 8 -3 22 -4 30 -1 8 -5 15 -9 15 -4 0 -10 9 -14 20 -16 50 -140 200
-165 200 -6 0 -10 3 -10 8 0 4 -17 16 -37 27 -21 11 -41 24 -44 28 -3 5 -10 9
-15 9 -5 0 -19 4 -32 9 -13 5 -30 9 -38 9 -8 0 -13 4 -10 9 4 5 -3 7 -14 4
-13 -4 -26 1 -35 13 -15 18 -15 18 -9 -1 5 -17 4 -18 -8 -5 -17 19 -93 26 -82
7 6 -9 4 -9 -7 1 -7 6 -28 12 -47 12 -24 0 -31 -4 -26 -12 6 -10 4 -10 -7 0
-7 6 -28 12 -47 12 -24 0 -31 -4 -26 -12 6 -10 4 -10 -7 0 -7 6 -28 12 -47 12
-24 0 -31 -4 -26 -12 6 -10 4 -10 -7 0 -7 6 -26 12 -41 12 -22 0 -28 -5 -29
-22z m364 -147 c16 -1 26 -5 23 -9 -3 -5 8 -8 24 -7 17 1 30 -1 30 -5 0 -4 15
-14 33 -21 44 -18 171 -148 172 -178 1 -3 6 -16 13 -27 6 -12 8 -24 5 -28 -3
-3 -1 -6 6 -6 7 0 10 -4 6 -9 -3 -5 -1 -12 4 -15 5 -4 8 -17 7 -31 -2 -13 1
-22 5 -19 5 3 10 -4 10 -15 2 -30 3 -34 13 -50 7 -10 6 -12 -4 -6 -13 8 -13 7
8 -44 4 -10 1 -12 -8 -6 -9 6 -11 4 -5 -6 13 -21 14 -103 1 -111 -8 -6 -8 -8
1 -8 7 0 10 -12 8 -32 -10 -82 -21 -153 -25 -153 -1 0 -4 -11 -6 -25 -2 -13
-9 -27 -15 -31 -6 -3 -10 -10 -10 -15 2 -17 -28 -79 -48 -101 -12 -12 -21 -25
-21 -29 0 -10 -73 -73 -92 -80 -10 -3 -18 -10 -18 -15 0 -6 -4 -8 -9 -4 -5 3
-12 1 -15 -4 -3 -5 -22 -12 -41 -15 -19 -4 -35 -10 -35 -14 0 -4 -21 -7 -47
-7 -27 1 -65 -2 -85 -6 -21 -3 -40 -4 -43 0 -4 3 -14 6 -23 6 -16 0 -17 36
-17 465 0 298 -4 468 -10 472 -7 5 -7 8 0 8 6 0 9 33 8 82 -1 46 -1 88 2 94 3
10 38 11 198 5z"/>
</g>
</svg>
